<?xml version="1.0" encoding="UTF-8"?>
<svg width="155px" height="27px" viewBox="0 0 155 27" version="1.1" xmlns="http://www.w3.org/2000/svg" xmlns:xlink="http://www.w3.org/1999/xlink">
    <!-- Generator: sketchtool 39.1 (31720) - http://www.bohemiancoding.com/sketch -->
    <title>35999C7D-571A-4B68-B755-AB6551C91F83</title>
    <desc>Created with sketchtool.</desc>
    <defs></defs>
    <g id="Page-1" stroke="none" stroke-width="1" fill="none" fill-rule="evenodd">
        <g id="1.1-copy-4" transform="translate(-318.000000, -317.000000)">
            <g id="Group-9" transform="translate(318.000000, 317.000000)">
                <g id="Group-4">
                    <g id="საგა-ლოგო">
                        <path d="M76.2378171,17.3385514 C76.2378171,18.2418943 76.9716771,18.9727457 77.8697743,18.9727457 C78.7751229,18.9727457 79.5076714,18.2418943 79.5076714,17.3385514 C79.5076714,16.4396057 78.7751229,15.7059771 77.8697743,15.7059771 C76.9716771,15.7059771 76.2378171,16.4396057 76.2378171,17.3385514" id="Fill-1" fill="#E82227"></path>
                        <path d="M79.50744,9.80593714 C79.50744,8.90483143 78.7748914,8.17205143 77.8695429,8.17205143 C76.9715229,8.17205143 76.2376629,8.90483143 76.2376629,9.80593714 C76.2376629,10.70712 76.9715229,11.4381257 77.8695429,11.4381257 C78.7748914,11.4381257 79.50744,10.70712 79.50744,9.80593714" id="Fill-2" fill="#E82227"></path>
                        <path d="M75.7169486,13.5752143 C75.7169486,12.6556714 74.9678143,11.9076171 74.0450314,11.9076171 C73.1252571,11.9076171 72.3730371,12.6556714 72.3730371,13.5752143 C72.3730371,14.4960686 73.1252571,15.2465143 74.0450314,15.2465143 C74.9678143,15.2465143 75.7169486,14.4960686 75.7169486,13.5752143" id="Fill-3" fill="#E82227"></path>
                        <path d="M75.5102829,17.4671486 C75.5102829,16.6245943 74.8247914,15.9441171 73.9843971,15.9441171 C73.1436171,15.9441171 72.4572,16.6245943 72.4572,17.4671486 C72.4572,18.3057686 73.1436171,18.9882514 73.9843971,18.9882514 C74.8247914,18.9882514 75.5102829,18.3057686 75.5102829,17.4671486" id="Fill-4" fill="#E82227"></path>
                        <path d="M75.5102829,9.67741714 C75.5102829,8.83902857 74.8247914,8.15454 73.9843971,8.15454 C73.1436171,8.15454 72.4572,8.83902857 72.4572,9.67741714 C72.4572,10.5172714 73.1436171,11.20068 73.9843971,11.20068 C74.8247914,11.20068 75.5102829,10.5172714 75.5102829,9.67741714" id="Fill-5" fill="#E82227"></path>
                        <path d="M80.0364086,13.5752143 C80.0364086,14.4960686 80.7855429,15.2465143 81.7105629,15.2465143 C82.6301057,15.2465143 83.3794714,14.4960686 83.3794714,13.5752143 C83.3794714,12.6556714 82.6301057,11.9076171 81.7105629,11.9076171 C80.7855429,11.9076171 80.0364086,12.6556714 80.0364086,13.5752143" id="Fill-6" fill="#E82227"></path>
                        <path d="M83.2979314,17.4671486 C83.2979314,16.6245943 82.6095086,15.9441171 81.7720457,15.9441171 C80.9272543,15.9441171 80.2447714,16.6245943 80.2447714,17.4671486 C80.2447714,18.3057686 80.9272543,18.9882514 81.7720457,18.9882514 C82.6095086,18.9882514 83.2979314,18.3057686 83.2979314,17.4671486" id="Fill-7" fill="#E82227"></path>
                        <path d="M80.2450029,9.67741714 C80.2450029,10.5172714 80.9274857,11.20068 81.77112,11.20068 C82.60974,11.20068 83.2981629,10.5172714 83.2981629,9.67741714 C83.2981629,8.83902857 82.60974,8.15454 81.77112,8.15454 C80.9274857,8.15454 80.2450029,8.83902857 80.2450029,9.67741714" id="Fill-8" fill="#E82227"></path>
                        <path d="M83.8670914,13.5732857 C83.8670914,14.2443514 84.4085571,14.7871286 85.0813971,14.7871286 C85.7526943,14.7871286 86.29524,14.2443514 86.29524,13.5732857 C86.29524,12.9052286 85.7526943,12.3629143 85.0813971,12.3629143 C84.4085571,12.3629143 83.8670914,12.9052286 83.8670914,13.5732857" id="Fill-9" fill="#E82227"></path>
                        <path d="M83.8227343,17.3025257 C83.8227343,17.9386457 84.3385886,18.4494086 84.9727029,18.4494086 C85.6058143,18.4494086 86.1185829,17.9386457 86.1185829,17.3025257 C86.1185829,16.6707257 85.6058143,16.1568771 84.9727029,16.1568771 C84.3385886,16.1568771 83.8227343,16.6707257 83.8227343,17.3025257" id="Fill-10" fill="#E82227"></path>
                        <path d="M83.8227343,9.84227143 C83.8227343,10.4742257 84.3385886,10.9869943 84.9727029,10.9869943 C85.6058143,10.9869943 86.1185829,10.4742257 86.1185829,9.84227143 C86.1185829,9.207 85.6058143,8.69423143 84.9727029,8.69423143 C84.3385886,8.69423143 83.8227343,9.207 83.8227343,9.84227143" id="Fill-11" fill="#E82227"></path>
                        <path d="M84.6959143,19.5775457 C84.24648,19.5775457 83.8811314,19.9414286 83.8811314,20.3873143 C83.8811314,20.8334314 84.24648,21.2003229 84.6959143,21.2003229 C85.14504,21.2003229 85.5066857,20.8334314 85.5066857,20.3873143 C85.5066857,19.9414286 85.14504,19.5775457 84.6959143,19.5775457" id="Fill-12" fill="#E82227"></path>
                        <path d="M83.8811314,6.75547714 C83.8811314,7.20329143 84.2469429,7.5681 84.6959143,7.5681 C85.1441914,7.5681 85.5066857,7.20329143 85.5066857,6.75547714 C85.5066857,6.30920571 85.1441914,5.94555429 84.6959143,5.94555429 C84.2469429,5.94555429 83.8811314,6.30920571 83.8811314,6.75547714" id="Fill-13" fill="#E82227"></path>
                        <path d="M79.2817971,20.6948057 C79.2817971,19.9198286 78.6506914,19.2856371 77.8697743,19.2856371 C77.0957229,19.2856371 76.4639229,19.9198286 76.4639229,20.6948057 C76.4639229,21.4675457 77.0957229,22.09842 77.8697743,22.09842 C78.6506914,22.09842 79.2817971,21.4675457 79.2817971,20.6948057" id="Fill-14" fill="#E82227"></path>
                        <path d="M81.6029486,19.5045686 C80.96274,19.5045686 80.4438,20.0265171 80.4438,20.6645657 C80.4438,21.3048514 80.96274,21.8228657 81.6029486,21.8228657 C82.2410743,21.8228657 82.76634,21.3048514 82.76634,20.6645657 C82.76634,20.0265171 82.2410743,19.5045686 81.6029486,19.5045686" id="Fill-15" fill="#E82227"></path>
                        <path d="M76.4637686,6.45022286 C76.4637686,7.22697429 77.0957229,7.85908286 77.8695429,7.85908286 C78.65046,7.85908286 79.2813343,7.22697429 79.2813343,6.45022286 C79.2813343,5.67324 78.65046,5.04352286 77.8695429,5.04352286 C77.0957229,5.04352286 76.4637686,5.67324 76.4637686,6.45022286" id="Fill-16" fill="#E82227"></path>
                        <path d="M80.4440314,6.48123429 C80.4440314,7.11828 80.96274,7.6383 81.6029486,7.6383 C82.2413057,7.6383 82.76634,7.11828 82.76634,6.48123429 C82.76634,5.84102571 82.2413057,5.32231714 81.6029486,5.32231714 C80.96274,5.32231714 80.4440314,5.84102571 80.4440314,6.48123429" id="Fill-17" fill="#E82227"></path>
                        <path d="M75.3115629,20.6644114 C75.3115629,20.0265171 74.7906943,19.5045686 74.1504086,19.5045686 C73.5081171,19.5045686 72.9881743,20.0265171 72.9881743,20.6644114 C72.9881743,21.30462 73.5081171,21.8227114 74.1504086,21.8227114 C74.7906943,21.8227114 75.3115629,21.30462 75.3115629,20.6644114" id="Fill-18" fill="#E82227"></path>
                        <path d="M71.8884257,13.5732857 C71.8884257,12.9052286 71.3408657,12.3629143 70.6750457,12.3629143 C70.0049829,12.3629143 69.4581171,12.9052286 69.4581171,13.5732857 C69.4581171,14.2443514 70.0049829,14.7871286 70.6750457,14.7871286 C71.3408657,14.7871286 71.8884257,14.2443514 71.8884257,13.5732857" id="Fill-19" fill="#E82227"></path>
                        <path d="M71.9306229,17.3025257 C71.9306229,16.6707257 71.4147686,16.1568771 70.7828143,16.1568771 C70.14978,16.1568771 69.6350057,16.6707257 69.6350057,17.3025257 C69.6350057,17.9386457 70.14978,18.4494086 70.7828143,18.4494086 C71.4147686,18.4494086 71.9306229,17.9386457 71.9306229,17.3025257" id="Fill-20" fill="#E82227"></path>
                        <path d="M74.1504086,7.6383 C74.7906943,7.6383 75.3117943,7.11828 75.3117943,6.48123429 C75.3117943,5.84102571 74.7906943,5.32185429 74.1504086,5.32185429 C73.5081171,5.32185429 72.9881743,5.84102571 72.9881743,6.48123429 C72.9881743,7.11828 73.5081171,7.6383 74.1504086,7.6383" id="Fill-21" fill="#E82227"></path>
                        <path d="M71.9306229,9.84227143 C71.9306229,9.207 71.4147686,8.69423143 70.7828143,8.69423143 C70.14978,8.69423143 69.6350057,9.207 69.6350057,9.84227143 C69.6350057,10.4742257 70.14978,10.9869943 70.7828143,10.9869943 C71.4147686,10.9869943 71.9306229,10.4742257 71.9306229,9.84227143" id="Fill-22" fill="#E82227"></path>
                        <path d="M71.8733829,20.3877771 C71.8733829,19.94166 71.5066457,19.5777771 71.05752,19.5777771 C70.6105543,19.5777771 70.24752,19.94166 70.24752,20.3877771 C70.24752,20.8336629 70.6105543,21.2003229 71.05752,21.2003229 C71.5066457,21.2003229 71.8733829,20.8336629 71.8733829,20.3877771" id="Fill-23" fill="#E82227"></path>
                        <path d="M71.0576743,7.5681 C71.5066457,7.5681 71.8735371,7.20329143 71.8735371,6.75547714 C71.8735371,6.30920571 71.5066457,5.94555429 71.0576743,5.94555429 C70.6093971,5.94555429 70.2479829,6.30920571 70.2479829,6.75547714 C70.2479829,7.20329143 70.6093971,7.5681 71.0576743,7.5681" id="Fill-24" fill="#E82227"></path>
                        <path d="M84.2723229,22.6685057 C83.9392971,22.6685057 83.6700686,22.9409743 83.6700686,23.27184 C83.6700686,23.6007 83.9392971,23.8710086 84.2723229,23.8710086 C84.6011829,23.8710086 84.87342,23.6007 84.87342,23.27184 C84.87342,22.9409743 84.6011829,22.6685057 84.2723229,22.6685057" id="Fill-25" fill="#E82227"></path>
                        <path d="M87.5731886,19.4022 C87.2648486,19.4022 87.0140571,19.6547657 87.0140571,19.9580914 C87.0140571,20.2652743 87.2648486,20.5169914 87.5731886,20.5169914 C87.8802171,20.5169914 88.1310086,20.2652743 88.1310086,19.9580914 C88.1310086,19.6547657 87.8802171,19.4022 87.5731886,19.4022" id="Fill-26" fill="#E82227"></path>
                        <path d="M83.6700686,3.87295714 C83.6700686,4.20181714 83.9395286,4.47297429 84.2725543,4.47297429 C84.6014143,4.47297429 84.87342,4.20181714 84.87342,3.87295714 C84.87342,3.54209143 84.6014143,3.27486857 84.2725543,3.27486857 C83.9395286,3.27486857 83.6700686,3.54209143 83.6700686,3.87295714" id="Fill-27" fill="#E82227"></path>
                        <path d="M87.0140571,7.18362 C87.0140571,7.49219143 87.2648486,7.74259714 87.5731886,7.74259714 C87.8802171,7.74259714 88.1310086,7.49219143 88.1310086,7.18362 C88.1310086,6.87944571 87.8802171,6.62865429 87.5731886,6.62865429 C87.2648486,6.62865429 87.0140571,6.87944571 87.0140571,7.18362" id="Fill-28" fill="#E82227"></path>
                        <path d="M72.0850629,23.27184 C72.0850629,22.9409743 71.8160657,22.6685057 71.48304,22.6685057 C71.1532543,22.6685057 70.8830229,22.9409743 70.8830229,23.27184 C70.8830229,23.6007 71.1532543,23.8707771 71.48304,23.8707771 C71.8160657,23.8707771 72.0850629,23.6007 72.0850629,23.27184" id="Fill-29" fill="#E82227"></path>
                        <path d="M68.7384514,19.9580914 C68.7384514,19.6547657 68.48766,19.4022 68.1824057,19.4022 C67.8740657,19.4022 67.6245086,19.6547657 67.6245086,19.9580914 C67.6245086,20.2652743 67.8740657,20.5169914 68.1824057,20.5169914 C68.48766,20.5169914 68.7384514,20.2652743 68.7384514,19.9580914" id="Fill-30" fill="#E82227"></path>
                        <path d="M71.48304,4.47297429 C71.8160657,4.47297429 72.0850629,4.20181714 72.0850629,3.87295714 C72.0850629,3.54209143 71.8160657,3.27486857 71.48304,3.27486857 C71.1532543,3.27486857 70.8830229,3.54209143 70.8830229,3.87295714 C70.8830229,4.20181714 71.1532543,4.47297429 71.48304,4.47297429" id="Fill-31" fill="#E82227"></path>
                        <path d="M78.78492,23.6630314 C78.78492,23.1605229 78.3769114,22.7494286 77.8691571,22.7494286 C77.3666486,22.7494286 76.9568657,23.1605229 76.9568657,23.6630314 C76.9568657,24.16662 77.3666486,24.57486 77.8691571,24.57486 C78.3769114,24.57486 78.78492,24.16662 78.78492,23.6630314" id="Fill-32" fill="#E82227"></path>
                        <path d="M81.3580971,22.7096229 C80.8913829,22.7096229 80.5166229,23.0879314 80.5166229,23.5501714 C80.5166229,24.0128743 80.8913829,24.3877114 81.3580971,24.3877114 C81.8184086,24.3877114 82.1988771,24.0128743 82.1988771,23.5501714 C82.1988771,23.0879314 81.8184086,22.7096229 81.3580971,22.7096229" id="Fill-33" fill="#E82227"></path>
                        <path d="M87.1715057,13.5732857 C87.1715057,14.0110714 87.5300657,14.3696314 87.9691629,14.3696314 C88.4078743,14.3696314 88.7634257,14.0110714 88.7634257,13.5732857 C88.7634257,13.1355 88.4078743,12.7810286 87.9691629,12.7810286 C87.5300657,12.7810286 87.1715057,13.1355 87.1715057,13.5732857" id="Fill-34" fill="#E82227"></path>
                        <path d="M87.8519829,16.2537686 C87.4113429,16.2537686 87.0588771,16.61148 87.0588771,17.04618 C87.0588771,17.4859714 87.4113429,17.8426029 87.8519829,17.8426029 C88.2919286,17.8426029 88.6473257,17.4859714 88.6473257,17.04618 C88.6473257,16.61148 88.2919286,16.2537686 87.8519829,16.2537686" id="Fill-35" fill="#E82227"></path>
                        <path d="M76.9566343,3.48060857 C76.9566343,3.98512286 77.3664171,4.39536857 77.8700057,4.39536857 C78.37668,4.39536857 78.7846886,3.98512286 78.7846886,3.48060857 C78.7846886,2.9781 78.37668,2.56793143 77.8700057,2.56793143 C77.3664171,2.56793143 76.9566343,2.9781 76.9566343,3.48060857" id="Fill-36" fill="#E82227"></path>
                        <path d="M80.51616,3.59393143 C80.51616,4.05725143 80.8912286,4.43255143 81.3578657,4.43255143 C81.8192571,4.43255143 82.1992629,4.05725143 82.1992629,3.59393143 C82.1992629,3.13254 81.8192571,2.75554286 81.3578657,2.75554286 C80.8912286,2.75554286 80.51616,3.13254 80.51616,3.59393143" id="Fill-37" fill="#E82227"></path>
                        <path d="M87.0581829,10.0972286 C87.0581829,10.5347829 87.4118057,10.8892543 87.8517514,10.8892543 C88.2913114,10.8892543 88.6481743,10.5347829 88.6481743,10.0972286 C88.6481743,9.65728286 88.2913114,9.30281143 87.8517514,9.30281143 C87.4118057,9.30281143 87.0581829,9.65728286 87.0581829,10.0972286" id="Fill-38" fill="#E82227"></path>
                        <path d="M75.2351914,23.5506343 C75.2351914,23.0883943 74.86128,22.71024 74.3948743,22.71024 C73.9343314,22.71024 73.5549429,23.0883943 73.5549429,23.5506343 C73.5549429,24.0120257 73.9343314,24.3872486 74.3948743,24.3872486 C74.86128,24.3872486 75.2351914,24.0120257 75.2351914,23.5506343" id="Fill-39" fill="#E82227"></path>
                        <path d="M68.5796914,13.5732857 C68.5796914,13.1355 68.22414,12.7810286 67.7872029,12.7810286 C67.34772,12.7810286 66.9921686,13.1355 66.9921686,13.5732857 C66.9921686,14.0110714 67.34772,14.3696314 67.7872029,14.3696314 C68.22414,14.3696314 68.5796914,14.0110714 68.5796914,13.5732857" id="Fill-40" fill="#E82227"></path>
                        <path d="M68.69826,17.0455629 C68.69826,16.6108629 68.3428629,16.2533057 67.8996,16.2533057 C67.4618914,16.2533057 67.1064943,16.6108629 67.1064943,17.0455629 C67.1064943,17.4865886 67.4618914,17.8419857 67.8996,17.8419857 C68.3428629,17.8419857 68.69826,17.4865886 68.69826,17.0455629" id="Fill-41" fill="#E82227"></path>
                        <path d="M74.39418,4.43293714 C74.8608943,4.43293714 75.2350371,4.05794571 75.2350371,3.59454857 C75.2350371,3.13184571 74.8608943,2.75508 74.39418,2.75508 C73.9347943,2.75508 73.5557914,3.13184571 73.5557914,3.59454857 C73.5557914,4.05794571 73.9347943,4.43293714 74.39418,4.43293714" id="Fill-42" fill="#E82227"></path>
                        <path d="M67.8994457,10.8899486 C68.3433257,10.8899486 68.6977971,10.5343971 68.6977971,10.09746 C68.6977971,9.65766857 68.3433257,9.30211714 67.8994457,9.30211714 C67.46166,9.30211714 67.1071886,9.65766857 67.1071886,10.09746 C67.1071886,10.5343971 67.46166,10.8899486 67.8994457,10.8899486" id="Fill-43" fill="#E82227"></path>
                        <path d="M68.1824057,7.74259714 C68.48766,7.74259714 68.7384514,7.49219143 68.7384514,7.18362 C68.7384514,6.87944571 68.48766,6.62865429 68.1824057,6.62865429 C67.8740657,6.62865429 67.6245086,6.87944571 67.6245086,7.18362 C67.6245086,7.49219143 67.8740657,7.74259714 68.1824057,7.74259714" id="Fill-44" fill="#E82227"></path>
                        <path d="M78.52518,26.0295429 C78.52518,25.66566 78.2312657,25.3749857 77.8695429,25.3749857 C77.5129114,25.3749857 77.2199229,25.66566 77.2199229,26.0295429 C77.2199229,26.38926 77.5129114,26.6820171 77.8695429,26.6820171 C78.2312657,26.6820171 78.52518,26.38926 78.52518,26.0295429" id="Fill-45" fill="#E82227"></path>
                        <path d="M81.06588,25.42752 C80.7967286,25.42752 80.5789543,25.6473 80.5789543,25.9164514 C80.5789543,26.1836743 80.7967286,26.4014486 81.06588,26.4014486 C81.3333343,26.4014486 81.5541943,26.1836743 81.5541943,25.9164514 C81.5541943,25.6473 81.3333343,25.42752 81.06588,25.42752" id="Fill-46" fill="#E82227"></path>
                        <path d="M83.5039029,25.2186943 C83.5039029,25.4294486 83.67138,25.5989314 83.8806686,25.5989314 C84.0903429,25.5989314 84.2587457,25.4294486 84.2587457,25.2186943 C84.2587457,25.01118 84.0903429,24.8416971 83.8806686,24.8416971 C83.67138,24.8416971 83.5039029,25.01118 83.5039029,25.2186943" id="Fill-47" fill="#E82227"></path>
                        <path d="M86.6608971,22.8231 C86.6608971,23.0800629 86.8694914,23.2915114 87.1296943,23.2915114 C87.3853457,23.2915114 87.5981057,23.0800629 87.5981057,22.8231 C87.5981057,22.5650571 87.3853457,22.3564629 87.1296943,22.3564629 C86.8694914,22.3564629 86.6608971,22.5650571 86.6608971,22.8231" id="Fill-48" fill="#E82227"></path>
                        <path d="M89.9123143,13.5732857 C89.9123143,13.8723686 90.1539257,14.1098914 90.44784,14.1098914 C90.7426029,14.1098914 90.98622,13.8723686 90.98622,13.5732857 C90.98622,13.2785229 90.7426029,13.0379143 90.44784,13.0379143 C90.1539257,13.0379143 89.9123143,13.2785229 89.9123143,13.5732857" id="Fill-49" fill="#E82227"></path>
                        <path d="M89.6964686,16.7605971 C89.6964686,17.0558229 89.9372314,17.2961229 90.23508,17.2961229 C90.53316,17.2961229 90.7706057,17.0558229 90.7706057,16.7605971 C90.7706057,16.4658343 90.53316,16.2231429 90.23508,16.2231429 C89.9372314,16.2231429 89.6964686,16.4658343 89.6964686,16.7605971" id="Fill-50" fill="#E82227"></path>
                        <path d="M89.0993057,19.6169657 C89.0993057,19.8502457 89.2908514,20.0422543 89.5228971,20.0422543 C89.7583371,20.0422543 89.9503457,19.8502457 89.9503457,19.6169657 C89.9503457,19.3794429 89.7583371,19.1912143 89.5228971,19.1912143 C89.2908514,19.1912143 89.0993057,19.3794429 89.0993057,19.6169657" id="Fill-51" fill="#E82227"></path>
                        <path d="M77.8697743,1.76950286 C78.2314971,1.76950286 78.5254114,1.47474 78.5254114,1.11502286 C78.5254114,0.756385714 78.2314971,0.464477143 77.8697743,0.464477143 C77.5120629,0.464477143 77.2201543,0.756385714 77.2201543,1.11502286 C77.2201543,1.47474 77.5120629,1.76950286 77.8697743,1.76950286" id="Fill-52" fill="#E82227"></path>
                        <path d="M80.57934,1.22965714 C80.57934,1.49880857 80.79696,1.71766286 81.0665743,1.71766286 C81.3324857,1.71766286 81.5535771,1.49880857 81.5535771,1.22965714 C81.5535771,0.958268571 81.3324857,0.741574286 81.0665743,0.741574286 C80.79696,0.741574286 80.57934,0.958268571 80.57934,1.22965714" id="Fill-53" fill="#E82227"></path>
                        <path d="M84.25944,1.92587143 C84.25944,1.71727714 84.0908057,1.54694571 83.8811314,1.54694571 C83.6716114,1.54694571 83.5041343,1.71727714 83.5041343,1.92587143 C83.5041343,2.13361714 83.6716114,2.30441143 83.8811314,2.30441143 C84.0908057,2.30441143 84.25944,2.13361714 84.25944,1.92587143" id="Fill-54" fill="#E82227"></path>
                        <path d="M87.5983371,4.32277714 C87.5983371,4.06380857 87.3853457,3.85282286 87.1296943,3.85282286 C86.8694914,3.85282286 86.6608971,4.06380857 86.6608971,4.32277714 C86.6608971,4.57727143 86.8694914,4.78833429 87.1296943,4.78833429 C87.3853457,4.78833429 87.5983371,4.57727143 87.5983371,4.32277714" id="Fill-55" fill="#E82227"></path>
                        <path d="M89.6964686,10.3841229 C89.6964686,10.6830514 89.9372314,10.9216543 90.23508,10.9216543 C90.53316,10.9216543 90.7706057,10.6830514 90.7706057,10.3841229 C90.7706057,10.0888971 90.53316,9.84751714 90.23508,9.84751714 C89.9372314,9.84751714 89.6964686,10.0888971 89.6964686,10.3841229" id="Fill-56" fill="#E82227"></path>
                        <path d="M89.9505771,7.52914286 C89.9505771,7.29447429 89.7570257,7.10362286 89.5228971,7.10362286 C89.28954,7.10362286 89.0997686,7.29447429 89.0997686,7.52914286 C89.0997686,7.76527714 89.28954,7.95358286 89.5228971,7.95358286 C89.7570257,7.95358286 89.9505771,7.76527714 89.9505771,7.52914286" id="Fill-57" fill="#E82227"></path>
                        <path d="M75.1761771,25.91622 C75.1761771,25.6468371 74.9561657,25.4270571 74.6880943,25.4270571 C74.4197914,25.4270571 74.2000114,25.6468371 74.2000114,25.91622 C74.2000114,26.1842914 74.4197914,26.4021429 74.6880943,26.4021429 C74.9561657,26.4021429 75.1761771,26.1842914 75.1761771,25.91622" id="Fill-58" fill="#E82227"></path>
                        <path d="M72.25254,25.2186943 C72.25254,25.01118 72.0830571,24.8416971 71.8744629,24.8416971 C71.6647114,24.8416971 71.4953057,25.01118 71.4953057,25.2186943 C71.4953057,25.4294486 71.6647114,25.5989314 71.8744629,25.5989314 C72.0830571,25.5989314 72.25254,25.4294486 72.25254,25.2186943" id="Fill-59" fill="#E82227"></path>
                        <path d="M69.0936171,22.8231 C69.0936171,22.5650571 68.8849457,22.3564629 68.6271343,22.3564629 C68.3690914,22.3564629 68.1596486,22.5650571 68.1596486,22.8231 C68.1596486,23.0800629 68.3690914,23.2915114 68.6271343,23.2915114 C68.8849457,23.2915114 69.0936171,23.0800629 69.0936171,22.8231" id="Fill-60" fill="#E82227"></path>
                        <path d="M65.8418914,13.5732857 C65.8418914,13.2785229 65.6015914,13.0379143 65.3065971,13.0379143 C65.0105229,13.0379143 64.7682171,13.2785229 64.7682171,13.5732857 C64.7682171,13.8723686 65.0105229,14.1098914 65.3065971,14.1098914 C65.6015914,14.1098914 65.8418914,13.8723686 65.8418914,13.5732857" id="Fill-61" fill="#E82227"></path>
                        <path d="M66.0538029,16.7605971 C66.0538029,16.4658343 65.8135029,16.2231429 65.5182771,16.2231429 C65.2224343,16.2231429 64.9821343,16.4658343 64.9821343,16.7605971 C64.9821343,17.0558229 65.2224343,17.2961229 65.5182771,17.2961229 C65.8135029,17.2961229 66.0538029,17.0558229 66.0538029,16.7605971" id="Fill-62" fill="#E82227"></path>
                        <path d="M66.22938,19.1912143 C65.9943257,19.1912143 65.8040914,19.3794429 65.8040914,19.6169657 C65.8040914,19.8502457 65.9943257,20.0422543 66.22938,20.0422543 C66.4660543,20.0422543 66.65382,19.8502457 66.65382,19.6169657 C66.65382,19.3794429 66.4660543,19.1912143 66.22938,19.1912143 Z" id="Fill-63" fill="#E82227"></path>
                        <path d="M74.6885571,1.71727714 C74.95686,1.71727714 75.17664,1.49857714 75.17664,1.22919429 C75.17664,0.958885714 74.95686,0.742191429 74.6885571,0.742191429 C74.4193286,0.742191429 74.1993943,0.958885714 74.1993943,1.22919429 C74.1993943,1.49857714 74.4193286,1.71727714 74.6885571,1.71727714" id="Fill-64" fill="#E82227"></path>
                        <path d="M72.25254,1.92587143 C72.25254,1.71727714 72.0830571,1.54694571 71.8744629,1.54694571 C71.6647114,1.54694571 71.4953057,1.71727714 71.4953057,1.92587143 C71.4953057,2.13361714 71.6647114,2.30441143 71.8744629,2.30441143 C72.0830571,2.30441143 72.25254,2.13361714 72.25254,1.92587143" id="Fill-65" fill="#E82227"></path>
                        <path d="M69.0936171,4.32277714 C69.0936171,4.06380857 68.8849457,3.85282286 68.6271343,3.85282286 C68.3690914,3.85282286 68.1596486,4.06380857 68.1596486,4.32277714 C68.1596486,4.57727143 68.3690914,4.78833429 68.6271343,4.78833429 C68.8849457,4.78833429 69.0936171,4.57727143 69.0936171,4.32277714" id="Fill-66" fill="#E82227"></path>
                        <path d="M66.0538029,10.3841229 C66.0538029,10.0888971 65.8135029,9.84751714 65.5182771,9.84751714 C65.2224343,9.84751714 64.9821343,10.0888971 64.9821343,10.3841229 C64.9821343,10.6830514 65.2224343,10.9216543 65.5182771,10.9216543 C65.8135029,10.9216543 66.0538029,10.6830514 66.0538029,10.3841229" id="Fill-67" fill="#E82227"></path>
                        <path d="M66.65382,7.52914286 C66.65382,7.29447429 66.4660543,7.10362286 66.22938,7.10362286 C65.9943257,7.10362286 65.8040914,7.29447429 65.8040914,7.52914286 C65.8040914,7.76527714 65.9943257,7.95358286 66.22938,7.95358286 C66.4660543,7.95358286 66.65382,7.76527714 66.65382,7.52914286" id="Fill-68" fill="#E82227"></path>
                        <path d="M79.9970657,13.5732857 C79.9970657,12.3998657 79.0425771,11.4503914 77.8700057,11.4503914 C76.70052,11.4503914 75.74472,12.3998657 75.74472,13.5732857 C75.74472,14.74578 76.70052,15.6933257 77.8700057,15.6933257 C79.0425771,15.6933257 79.9970657,14.74578 79.9970657,13.5732857" id="Fill-69" fill="#E82227"></path>
                        <path d="M110.854594,15.7009629 C110.854594,16.7562771 110.482457,17.6040771 109.734557,18.2421257 C109.019057,18.8423743 108.127131,19.1373686 107.05338,19.1373686 L98.5803171,19.1373686 L98.5803171,17.1990771 L107.05338,17.1990771 C107.579571,17.1990771 108.040963,17.0812029 108.435626,16.84044 C108.877346,16.5485314 109.101523,16.1542543 109.101523,15.65568 C109.101523,15.1581857 108.8721,14.7698486 108.416803,14.49846 C108.038726,14.26842 107.579571,14.1553286 107.05338,14.1553286 L101.81754,14.1553286 C100.851634,14.1553286 100.043871,13.8901114 99.39618,13.3567457 C98.7005829,12.78234 98.3532857,12.0217886 98.3532857,11.0805686 C98.3532857,10.1475257 98.7005829,9.38898 99.39618,8.81665714 C100.043871,8.28336857 100.851634,8.01414 101.81754,8.01414 L110.190703,8.01414 L110.190703,9.95644286 L101.81754,9.95644286 C101.446406,9.95644286 101.135057,10.0570371 100.87308,10.2625457 C100.613031,10.4692114 100.483586,10.7456143 100.483586,11.0928343 C100.483586,11.4514714 100.613031,11.7302657 100.87308,11.92428 C101.135057,12.11976 101.446406,12.2181171 101.81754,12.2181171 L107.05338,12.2181171 C108.127131,12.2181171 109.019057,12.5275371 109.734557,13.1462229 C110.482457,13.7954571 110.854594,14.6517429 110.854594,15.7009629" id="Fill-70" fill="#275AA7"></path>
                        <path d="M116.922111,14.1052629 L118.868503,10.8999771 L120.802474,14.1052629 L116.922111,14.1052629 Z M120.43134,9.08935714 C120.269109,8.80662857 120.057197,8.56324286 119.798306,8.35657714 C119.493283,8.12129143 119.199369,8.00102571 118.91772,8.00102571 C118.659909,8.00102571 118.364914,8.12460857 118.042149,8.37624857 C117.772071,8.59209429 117.556226,8.83023429 117.406877,9.08935714 L111.37392,19.13652 L113.860697,19.13652 L115.752626,16.0280486 L121.961391,16.0280486 L123.827786,19.13652 L126.315874,19.1551114 L120.43134,9.08935714 Z" id="Fill-71" fill="#275AA7"></path>
                        <path d="M138.835543,19.1371371 L131.780906,19.1371371 C130.167309,19.1371371 128.832737,18.5996829 127.774183,17.5279371 C126.717789,16.4518714 126.190517,15.0943114 126.190517,13.4554114 C126.190517,11.8295486 126.709457,10.5140314 127.757751,9.51318 C128.805891,8.51865429 130.142854,8.01375429 131.780906,8.01375429 L138.056631,8.01375429 L138.056631,9.95621143 L131.780906,9.95621143 C130.722351,9.95621143 129.84786,10.2973371 129.155117,10.97982 C128.46762,11.6653114 128.125569,12.5426571 128.125569,13.6207286 C128.125569,14.6812886 128.46762,15.5424343 129.155117,16.2063257 C129.84786,16.8710657 130.722351,17.1990771 131.780906,17.1990771 L136.90242,17.1990771 L136.90242,14.7748629 L131.636186,14.7748629 L131.636186,12.9998829 L138.835543,12.9998829 L138.835543,19.1371371 Z" id="Fill-72" fill="#275AA7"></path>
                        <path d="M145.548514,14.1052629 L147.496911,10.8999771 L149.433891,14.1052629 L145.548514,14.1052629 Z M149.059131,9.08935714 C148.896437,8.80662857 148.687997,8.56324286 148.42494,8.35657714 C148.12362,8.12129143 147.829706,8.00102571 147.54636,8.00102571 C147.287469,8.00102571 146.992243,8.12460857 146.672717,8.37624857 C146.402486,8.59209429 146.18664,8.83023429 146.036597,9.08935714 L140.00148,19.13652 L142.490186,19.13652 L144.38304,16.0280486 L150.588103,16.0280486 L152.455346,19.13652 L154.947291,19.1551114 L149.059131,9.08935714 Z" id="Fill-73" fill="#275AA7"></path>
                        <path d="M41.2961143,16.37928 C41.2961143,16.8509314 40.9950257,17.2395 40.4647457,17.2395 L31.6710771,17.2395 C31.1387914,17.2395 30.8387829,16.8509314 30.8387829,16.37928 L30.8387829,14.4783257 C30.8387829,14.0075229 31.1387914,13.6170257 31.6710771,13.6170257 L40.4647457,13.6170257 C40.9950257,13.6170257 41.2961143,14.0075229 41.2961143,14.4783257 L41.2961143,16.37928 Z M39.6517371,11.6810486 L38.4392057,11.6810486 L38.4392057,8.58553714 C38.4392057,8.43464571 38.3816571,8.2836 38.2674857,8.16858 C38.1524657,8.05348286 38.0016514,7.99686 37.8505286,7.99686 L32.8507457,7.99686 C32.5415571,7.99686 32.2056771,8.2188 32.2056771,8.57026286 L32.2056771,10.1149714 C32.2056771,10.2494314 32.1954171,10.5649457 32.2929257,10.72332 C32.3565686,10.8341743 32.46858,10.8219086 32.6679943,10.8219086 L33.8107886,10.8219086 L34.20414,10.8219086 L34.20414,9.77554286 L36.4258543,9.77554286 L36.4258543,11.6810486 L31.2632229,11.6810486 C29.85822,11.6810486 28.7556943,12.5883257 28.7556943,14.3137029 L28.7556943,16.7042057 C28.7556943,17.9290029 29.6807143,19.1487857 31.1615486,19.1487857 L36.2710286,19.1487857 L36.3983143,19.1487857 L41.0536543,19.1487857 C42.1027971,19.1487857 43.3748057,18.0750343 43.3748057,16.6968 L43.3748057,14.5728257 C43.3748057,13.2133371 43.0728686,11.6810486 39.6517371,11.6810486 L39.6517371,11.6810486 Z" id="Fill-74" fill="#2459A6"></path>
                        <path d="M16.2334029,18.5419029 C16.8951343,18.9725143 17.5292486,19.11222 18.7150886,19.11222 L20.8998514,19.11222 C22.4649257,19.11222 23.1379971,19.0752686 23.1379971,19.0752686 C23.7454971,19.0752686 24.1780371,18.97668 24.3783,18.9138857 C25.1369229,18.67158 26.6083457,18.1977686 26.703,15.8054914 L26.703,13.9443429 C26.703,12.9537514 26.6733,12.6979457 25.7544514,12.0906771 C23.6046343,10.66122 22.2276343,9.72902571 20.1487114,8.03342571 L17.37288,8.0406 C19.1787171,9.68459143 22.6140429,12.1182171 23.6590971,12.8446714 C24.0835371,13.1378914 24.7174971,13.4510143 24.7360886,13.7643686 L24.7360886,15.8506971 C24.7360886,16.23888 24.5593543,16.7291229 24.0885514,16.9552286 C23.6385771,17.1999257 23.07744,17.17308 22.2757714,17.18658 C21.1557343,17.2040914 20.763,17.1988457 19.4900657,17.18658 C18.9206743,17.1813343 18.3647829,17.1743914 17.9559257,17.08992 C17.5415143,17.0005114 17.1614314,16.8226971 17.1595029,15.8310257 L17.1595029,14.5793829 L15.1461514,14.5793829 L15.1461514,15.57414 C15.1461514,16.6768971 15.1256314,17.8247057 16.2334029,18.5419029" id="Fill-75" fill="#275AA7"></path>
                        <path d="M46.5186857,18.5419029 C47.1793371,18.9725143 47.8145314,19.11222 49.0026086,19.11222 L51.1873714,19.11222 C52.75044,19.11222 53.42436,19.0752686 53.42436,19.0752686 C54.03078,19.0752686 54.46332,18.97668 54.6648943,18.9138857 C55.4230543,18.67158 56.8947086,18.1977686 56.9861229,15.8054914 L56.9861229,13.9443429 C56.9861229,12.9537514 56.9544171,12.6979457 56.0410457,12.0906771 C53.8888371,10.66122 52.5138429,9.72902571 50.4326829,8.03342571 L47.66256,8.0406 C49.46184,9.68459143 52.90326,12.1182171 53.9474657,12.8446714 C54.3696686,13.1378914 55.0051714,13.4510143 55.0193657,13.7643686 L55.0193657,15.8506971 C55.0193657,16.23888 54.8446371,16.7291229 54.3749143,16.9552286 C53.9229343,17.1999257 53.3638029,17.17308 52.5610543,17.18658 C51.4401686,17.2040914 51.0474343,17.1988457 49.7782029,17.18658 C49.2051086,17.1813343 48.6489857,17.1743914 48.2420571,17.08992 C47.8257171,17.0005114 47.44872,16.8226971 47.4445543,15.8310257 L47.4445543,14.5793829 L45.4295057,14.5793829 L45.4295057,15.57414 C45.4295057,16.6768971 45.4086771,17.8247057 46.5186857,18.5419029" id="Fill-76" fill="#275AA7"></path>
                        <path d="M11.0770971,15.8564057 C11.0729314,16.8472286 10.69686,17.0280514 10.28268,17.11422 C9.87374571,17.1996943 9.31677429,17.2058657 8.74630286,17.21196 C7.47514286,17.2242257 6.33844286,17.2286229 5.22041143,17.21196 C4.41588857,17.1983829 3.85698857,17.2261543 3.40369714,16.9816886 C2.93482286,16.7566629 2.75639143,16.2633343 2.75639143,15.8760771 L2.75639143,8.00935714 L0.725837143,8.00935714 L0.725837143,15.83172 C0.817174286,18.2219914 2.28975429,18.69696 3.0483,18.9384171 C3.24756,19.00314 3.6801,19.0998 4.28752286,19.0998 C4.28752286,19.0998 5.47644857,19.1367514 7.03735714,19.1367514 L9.52320857,19.1367514 C10.7112857,19.1367514 11.3454,18.9969686 12.0060514,18.5692886 C13.1118943,17.8489286 13.0921457,16.70112 13.0921457,15.6007543 L13.0921457,13.8597171 L11.0770971,13.8597171 L11.0770971,15.8564057 Z" id="Fill-77" fill="#275AA7"></path>
                    </g>
                </g>
            </g>
        </g>
    </g>
</svg>